<svg version="1.1" id="Layer_1" xmlns="http://www.w3.org/2000/svg" x="0" y="0" viewBox="0 0 512 512" xml:space="preserve"><style>.st0{fill:#fcc24d}.st1{fill:#e95353}.st2{fill:#efac52}.st3{fill:#c13636}.st4{opacity:.15;fill:#202020;enable-background:new}.st5{display:none}.st6{display:inline}.st8{fill:#fff}.st10,.st17,.st9{display:inline;fill:#fccf3f}.st10,.st17{fill:#efc03c}.st17{fill:#fff}</style><path class="st0" d="M167.5 0h-33.6l-13.4 111.1-2.9 24.6h66.2z"/><path class="st1" d="M408.5 0h-33.6l-13.4 111.2-2.9 24.5h66.2z"/><path class="st0" d="M245.7 486.3c0 14.2-11.5 25.7-25.7 25.7H81.4c-14.2 0-25.7-11.5-25.7-25.7v-280c0-14.2 11.5-25.7 25.7-25.7H220c14.2 0 25.7 11.5 25.7 25.7v280z"/><path class="st1" d="M486.7 486.3c0 14.2-11.5 25.7-25.7 25.7H322.4c-14.2 0-25.7-11.5-25.7-25.7v-280c0-14.2 11.5-25.7 25.7-25.7H461c14.2 0 25.7 11.5 25.7 25.7v280z"/><path class="st2" d="M197.9 33.9H86.6c-33.8 0-61.3 27.5-61.3 61.3v2.4c0 30.3 21.7 55.8 51.6 60.6.4.1.9.1 1.3.1 4.1 0 7.6-2.9 8.3-7.1.7-4.6-2.4-8.9-7-9.6-21.7-3.5-37.5-22-37.5-44v-2.4c0-24.6 20-44.6 44.6-44.6h111.3c4.6 0 8.4-3.8 8.4-8.4s-3.7-8.3-8.4-8.3z"/><path class="st3" d="M439 33.9H327.7c-33.8 0-61.3 27.5-61.3 61.3v2.4c0 30.3 21.7 55.8 51.6 60.6.4.1.9.1 1.3.1 4 0 7.6-2.9 8.3-7.1.7-4.6-2.4-8.9-7-9.6-21.7-3.5-37.5-22-37.5-44v-2.4c0-24.6 20-44.6 44.6-44.6H439c4.6 0 8.4-3.8 8.4-8.4s-3.8-8.3-8.4-8.3z"/><path class="st2" d="M222.2 168.2c0 7.4-6 13.4-13.4 13.4H92.6c-7.4 0-13.4-6-13.4-13.4v-21.4c0-7.4 6-13.4 13.4-13.4h116.1c7.4 0 13.4 6 13.4 13.4v21.4z"/><path class="st3" d="M463.2 168.2c0 7.4-6 13.4-13.4 13.4H333.7c-7.4 0-13.4-6-13.4-13.4v-21.4c0-7.4 6-13.4 13.4-13.4h116.1c7.4 0 13.4 6 13.4 13.4v21.4zM458.8 471c0 7.4-6 13.4-13.4 13.4H338.1c-7.4 0-13.4-6-13.4-13.4V223.3c0-7.4 6-13.4 13.4-13.4h107.3c7.4 0 13.4 6 13.4 13.4V471z"/><path class="st2" d="M217.8 471c0 7.4-6 13.4-13.4 13.4H97c-7.4 0-13.4-6-13.4-13.4V359.7c0-7.4 6-13.4 13.4-13.4h107.3c7.4 0 13.4 6 13.4 13.4l.1 111.3z"/><path class="st4" d="M98.2 168.2v-21.4c0-7.4 6-13.4 13.4-13.4h-19c-7.4 0-13.4 6-13.4 13.4v21.4c0 7.4 6 13.4 13.4 13.4h19c-7.4 0-13.4-6-13.4-13.4zM339.2 168.2v-21.4c0-7.4 6-13.4 13.4-13.4h-19c-7.4 0-13.4 6-13.4 13.4v21.4c0 7.4 6 13.4 13.4 13.4h19c-7.4 0-13.4-6-13.4-13.4zM343.6 471V223.3c0-7.4 6-13.4 13.4-13.4h-19c-7.4 0-13.4 6-13.4 13.4V471c0 7.4 6 13.4 13.4 13.4h19c-7.4 0-13.4-6-13.4-13.4zM102.6 471V359.7c0-7.4 6-13.4 13.4-13.4H97c-7.4 0-13.4 6-13.4 13.4V471c0 7.4 6 13.4 13.4 13.4h19c-7.4 0-13.4-6-13.4-13.4z"/><g class="st5"><path class="st6" d="M893.1 526l83.3-48-83.3-48v96z"/><path class="st6" d="M925 222c-141.4 0-256 114.6-256 256s114.6 256 256 256 256-114.6 256-256-114.6-256-256-256zm160 256.3s0 51.9-6.6 77c-3.7 13.7-14.5 24.5-28.2 28.2C1025.1 590 925 590 925 590s-99.9 0-125.2-6.9c-13.7-3.7-24.5-14.5-28.2-28.2C765 530.2 765 478 765 478s0-51.9 6.6-76.9c3.7-13.7 14.8-24.8 28.2-28.5C824.9 366 925 366 925 366s100.1 0 125.2 6.9c13.7 3.7 24.5 14.5 28.2 28.2 6.8 25 6.6 77.2 6.6 77.2z"/></g><g class="st5"><path class="st6" d="M974 478c0 27.1-21.9 49-49 49s-49-21.9-49-49 21.9-49 49-49 49 21.9 49 49z"/><path class="st6" d="M1039.6 391.3c-2.4-6.4-6.1-12.2-11-16.9-4.7-4.9-10.5-8.6-16.9-11-5.2-2-13-4.4-27.3-5.1-15.5-.7-20.2-.9-59.4-.9-39.3 0-43.9.1-59.4.9-14.3.7-22.1 3.1-27.3 5.1-6.4 2.4-12.2 6.1-16.9 11-4.9 4.7-8.6 10.5-11 16.9-2 5.2-4.4 13-5.1 27.3-.7 15.5-.9 20.1-.9 59.4 0 39.2.2 43.9.9 59.4.7 14.3 3 22.1 5.1 27.3 2.4 6.4 6.1 12.2 11 16.9 4.7 4.9 10.5 8.6 16.9 11 5.2 2 13 4.4 27.3 5.1 15.5.7 20.1.9 59.4.9s43.9-.1 59.4-.9c14.3-.7 22.1-3 27.3-5.1 12.8-4.9 23-15.1 27.9-27.9 2-5.2 4.4-13 5.1-27.3.7-15.5.9-20.2.9-59.4 0-39.3-.1-43.9-.9-59.4-.7-14.3-3.1-22.1-5.1-27.3zM925 553.5c-41.7 0-75.5-33.8-75.5-75.5s33.8-75.5 75.5-75.5 75.5 33.8 75.5 75.5-33.8 75.5-75.5 75.5zm78.5-136.3c-9.7 0-17.6-7.9-17.6-17.6s7.9-17.6 17.6-17.6 17.6 7.9 17.6 17.6c0 9.7-7.9 17.6-17.6 17.6z"/><path class="st6" d="M925 222c-141.4 0-256 114.6-256 256s114.6 256 256 256 256-114.6 256-256-114.6-256-256-256zm146.1 316.6c-.7 15.6-3.2 26.3-6.8 35.7-7.6 19.7-23.2 35.4-43 43-9.3 3.6-20 6.1-35.7 6.8-15.7.7-20.7.9-60.6.9-39.9 0-44.9-.2-60.6-.9-15.6-.7-26.3-3.2-35.7-6.8-9.8-3.7-18.7-9.5-26-17-7.5-7.3-13.3-16.2-17-26-3.6-9.3-6.1-20-6.8-35.7-.7-15.7-.9-20.7-.9-60.6s.2-44.9.9-60.6c.7-15.6 3.2-26.3 6.8-35.7 3.7-9.8 9.5-18.7 17-26 7.3-7.5 16.2-13.3 26-17 9.4-3.6 20-6.1 35.7-6.8 15.7-.7 20.7-.9 60.6-.9s44.9.2 60.6.9c15.6.7 26.3 3.2 35.7 6.8 9.8 3.7 18.7 9.5 26 17 7.5 7.3 13.3 16.2 17 26 3.6 9.4 6.1 20 6.8 35.7.7 15.7.9 20.7.9 60.6s-.2 44.9-.9 60.6z"/></g><circle class="st8" cx="391" cy="315.2" r="66.5"/><path d="M401.7 381.8c-.6.1-1.1.2-1.7.3.6-.1 1.1-.2 1.7-.3zM403 381.6c-.3 0-.5.1-.8.1.3 0 .6-.1.8-.1zM398.5 382.2c-.7.1-1.3.1-2 .2.7 0 1.4-.1 2-.2zM399.8 382.1c-.3 0-.6.1-.9.1.3 0 .6-.1.9-.1zM404.9 381.2c-.2.1-.5.1-.7.1.2 0 .4 0 .7-.1zM409.4 380.1c-.2.1-.4.1-.6.2.2-.1.4-.2.6-.2zM408 380.5c-.2.1-.4.1-.6.2.2-.1.4-.2.6-.2zM406.2 380.9c-.2.1-.4.1-.7.1.3 0 .5 0 .7-.1zM396.5 382.4c-.4 0-.7.1-1.1.1.4 0 .8 0 1.1-.1z"/><path d="M457.9 315.7c0-37-30-67-67-67s-67 30-67 67 30 67 67 67h1.2v-52.2h-14.4v-16.8h14.4v-12.3c0-14.3 8.7-22.1 21.5-22.1 6.1 0 11.4.5 12.9.7v15h-8.8c-6.9 0-8.3 3.3-8.3 8.1v10.7H426l-2.2 16.8h-14.4v49.6c28-8.1 48.5-33.9 48.5-64.5zM395.3 382.5c-.7 0-1.4.1-2.1.1.7 0 1.4 0 2.1-.1z"/><path d="M393.2 382.6h-1.1c.3.1.7 0 1.1 0z"/><g class="st5"><path class="st9" d="M226.1 324l-19.1 1.9c-6.6.6-12.7-3.9-13.6-10.3L151.8 27.9c-1.2-8.4 4.1-16.1 11.8-16.9l29.8-3.3c7.8-.9 14.8 5.4 15.6 13.9l28 289.8c.5 6.3-4.3 12-10.9 12.6z"/><path class="st10" d="M176.6 345.9l-18.9.9c-6.6.3-12.4-4.4-13.2-10.7L111.1 52.9c-1-8.3 4.5-15.5 12.2-15.9l29.6-1.7c7.7-.4 14.5 6.1 15 14.4L187.6 334c.5 6.3-4.4 11.6-11 11.9z"/><path class="st9" d="M148.3 365.7l-18.6 2.1c-6.4.7-12.6-3.6-13.9-9.7L59.1 83.4c-1.7-8 3.1-15.4 10.6-16.4l28.9-3.8c7.5-1 14.7 4.9 16 13l43.7 277.2c.8 6-3.6 11.6-10 12.3zM269.3 324l19.1 1.9c6.6.6 12.7-3.9 13.6-10.3l41.6-287.7c1.2-8.4-4.1-16.1-11.8-16.9L302 7.6c-7.7-.9-14.8 5.4-15.6 13.9l-28 289.8c-.5 6.4 4.3 12.1 10.9 12.7z"/><path class="st10" d="M318.8 345.9l18.9.9c6.6.3 12.4-4.4 13.2-10.7l33.3-283.2c1-8.3-4.5-15.5-12.2-15.9l-29.6-1.7c-7.7-.4-14.5 6.1-15 14.4L307.7 334c-.4 6.3 4.6 11.6 11.1 11.9z"/><path class="st9" d="M347.2 365.7l18.6 2.1c6.4.7 12.6-3.6 13.9-9.7l56.8-274.8c1.7-8-3.1-15.4-10.6-16.4L397 63.1c-7.5-1-14.7 4.9-16 13l-43.7 277.2c-1 6.1 3.4 11.7 9.9 12.4z"/><path class="st10" d="M254.2 355.1h-18.9c-6.6 0-12-5-12.1-11.3L216 62.1c-.2-8.2 5.9-15 13.6-15h29.6c7.7 0 13.8 6.8 13.6 15l-6.4 281.7c-.2 6.3-5.6 11.3-12.2 11.3z"/><path class="st9" d="M255 381l-17.4 7.1c-6 2.5-13 0-15.7-5.6L102.4 130.8c-3.5-7.4-.6-15.8 6.4-18.7l27.1-11.3c7-2.9 15.4.8 18.5 8.4l107.3 257.1c2.3 5.6-.6 12.2-6.7 14.7z"/><path class="st10" d="M255.2 425.9l-18.8.9c-6.5.3-12.2-4.4-12.9-10.6L195.6 139c-.8-8.1 4.7-15.1 12.3-15.5l29.3-1.5c7.6-.4 14.2 6 14.6 14.1l14.5 278.2c.4 6.1-4.6 11.3-11.1 11.6zM336.2 379.4l18.2.8c6.3.3 12-4.1 12.7-10l33.1-261.1c1-7.6-4.3-14.2-11.6-14.5l-28.3-1.5c-7.4-.4-13.9 5.6-14.5 13.2l-20.2 262c-.5 5.9 4.2 10.8 10.6 11.1z"/><path class="st9" d="M266 421.7l19.8 3.1c6.9 1.1 13.3-3.6 14.5-10.4l46.5-271.6c1.2-7-3.6-13.6-10.6-14.7l-27-4.3c-7-1.1-13.6 3.7-14.6 10.7l-39.3 272.8c-.9 6.9 3.8 13.4 10.7 14.4z"/><path d="M339.9 175.3c-4 0-7.5 2.5-8.9 6.2-12.9 33.5-45.3 57.2-83.3 57.2s-70.4-23.8-83.3-57.2c-1.4-3.7-4.9-6.2-8.9-6.2H68.2c-5.9 0-10.4 5.3-9.4 11.1l53.5 310.2c.8 4.6 4.7 7.9 9.4 7.9h252c4.6 0 8.6-3.3 9.4-7.9l53.5-310.2c1-5.8-3.5-11.1-9.4-11.1h-87.3z" fill="#fc4e51"/><path d="M427.2 175.3h-60c5.9 0 10.4 5.3 9.4 11.1l-53.5 310.2c-.8 4.6-4.7 7.9-9.4 7.9h60c4.6 0 8.6-3.3 9.4-7.9l53.5-310.2c1-5.8-3.5-11.1-9.4-11.1z" fill="#ea3942"/><path d="M411.8 330H83.6L94 390.3h307.4l10.4-60.3z" fill="#f3e8d7"/><path d="M411.8 330h-60l-10.4 60.2h60l10.4-60.2z" fill="#e5d8c6"/><path d="M325.9 361.9c0 43.2-35 78.2-78.2 78.2s-78.2-35-78.2-78.2 35-78.2 78.2-78.2c43.2.1 78.2 35.1 78.2 78.2z" fill="#efa335"/><path d="M283 292.2c2.1 7.1 3.3 14.7 3.3 22.5 0 43.2-35 78.2-78.2 78.2-12.7 0-24.7-3.1-35.3-8.4 9.7 32.2 39.5 55.7 74.9 55.7 43.2 0 78.2-35 78.2-78.2 0-30.5-17.4-56.9-42.9-69.8z" fill="#fd8f31"/><path class="st6" d="M247.7 276.3c-47.2 0-85.7 38.4-85.7 85.7s38.4 85.7 85.7 85.7c47.2 0 85.7-38.4 85.7-85.7s-38.4-85.7-85.7-85.7zm0 156.3c-39 0-70.7-31.7-70.7-70.7s31.7-70.7 70.7-70.7 70.7 31.7 70.7 70.7-31.7 70.7-70.7 70.7z"/><path class="st6" d="M427.2 167.8h-.6L443.7 85c1.3-6.1 0-12.4-3.4-17.2-3.2-4.5-8-7.4-13.5-8.2l-28.9-3.8c-2.2-.3-4.3-.2-6.4.2l.3-2.2c.7-6.2-1.1-12.5-4.9-17.1-3.6-4.3-8.7-6.9-14.3-7.2l-21.4-1.2c.7-6.1-.9-12.2-4.5-16.9-3.5-4.5-8.4-7.3-13.9-7.9L303 .2c-5.5-.6-11 1-15.4 4.6-4.8 3.9-7.9 9.7-8.5 16l-2.7 28.1c-.7-1.1-1.5-2.1-2.4-3-4-4.1-9.2-6.3-14.7-6.3h-29.6c-3.9 0-7.7 1.1-11 3.2l-2.1-22.1c-.6-6.3-3.7-12.2-8.5-16-4.4-3.6-9.9-5.2-15.4-4.6l-29.8 3.3c-5.5.6-10.5 3.4-13.9 7.9-3.6 4.7-5.2 10.8-4.5 16.9l-21.4 1.2c-5.6.3-10.6 2.9-14.3 7.2-3.9 4.6-5.7 10.8-4.9 17.1l.3 2.2c-2.1-.4-4.3-.5-6.4-.2l-28.9 3.8c-5.5.7-10.3 3.6-13.5 8.2-3.4 4.8-4.7 11.1-3.4 17.2l17.1 82.8h-.6c-5 0-9.8 2.2-13 6.1s-4.6 8.9-3.8 13.9L105 497.9c1.4 8.2 8.5 14.1 16.8 14.1h252c8.3 0 15.4-5.9 16.8-14.1L444 187.7c.9-5-.5-10-3.8-13.9-3.2-3.8-8-6-13-6zm-37.9-93.3c1.4-2.7 4.1-4.3 6.7-3.9l28.9 3.8c1.7.2 2.7 1.2 3.2 2 1 1.5 1.4 3.5 1 5.5l-17.7 85.9h-11l7.3-57.7c.7-5.8-.9-11.6-4.6-16-3.5-4.2-8.5-6.7-14.1-7l-1.2-.1 1.5-12.5zm-10.2 27.1l9.1.5c1.7.1 2.8.9 3.4 1.7 1 1.2 1.4 2.8 1.2 4.5l-7.5 59.6h-35l4.1-23.7c.8-4.9-.1-9.8-2.7-14l1.8-23.1c.2-2.2 1.4-4.2 3.1-5.3 1-.7 2.2-1 3.5-1l19 .8zm-37.3-58.8h.3l29.6 1.7c1.8.1 3 1.1 3.6 1.9 1.2 1.5 1.8 3.5 1.5 5.7l-2.3 19.6-1.7 14.7-12.2-.6c-11.4-.6-21.4 8.4-22.3 20.1l-1.1 14.9-7-1.1 4.8-69.4c.2-4.2 3.4-7.6 6.8-7.5zm-2.4 98.8l-4.6 27c-4.9 1.5-8.9 5.2-10.8 10.2-5.9 15.3-16.1 28.3-29.5 37.7-1.4 1-2.9 2-4.4 2.9l12.1-83.6c.2-1.4.9-2.6 2.1-3.5 1.1-.8 2.5-1.2 3.9-1l12.8 2 14.2 2.2c1.4.2 2.6 1 3.4 2.1s1.1 2.6.8 4zm-62.2 54.1l16.7-173.5c.2-2.3 1.3-4.5 3-5.8.9-.7 2.4-1.6 4.3-1.4l29.8 3.3c1.8.2 3.1 1.3 3.7 2.2 1.3 1.7 1.8 3.9 1.5 6.2l-.3 1.8c-.1 0-.2.1-.4.1-.2.1-.3.1-.5.2-.5.2-.9.3-1.4.5-.1 0-.2.1-.4.2-.9.4-1.7.8-2.6 1.4-.1 0-.1.1-.2.1-.5.3-1 .7-1.5 1l-.1.1c-.3.2-.5.4-.8.6-.1 0-.1.1-.2.1l-1.2 1.2-.3.3-.6.6c-.2.2-.4.5-.6.7-.2.2-.4.5-.6.7-.1.2-.3.4-.4.6-.2.2-.3.5-.5.7-.2.3-.4.6-.5.9l-.3.6c-.2.3-.4.7-.5 1-.1.2-.2.3-.2.5-.2.4-.3.7-.5 1.1-.1.1-.1.3-.2.4-.2.5-.3.9-.5 1.4 0 .1-.1.2-.1.3-.1.4-.2.9-.3 1.3 0 .1 0 .2-.1.3l-.3 1.5c0 .1 0 .2-.1.4-.1.5-.1 1.1-.2 1.6l-4.7 68.1-4.8-.8c-5.4-.9-10.8.5-15.1 3.7-4.4 3.2-7.2 8-8 13.4L277 205.1l.2-9.4zM225.5 56.4c.8-.8 2.1-1.8 4-1.8h29.6c1.9 0 3.2 1 4 1.8 1.4 1.4 2.1 3.5 2.1 5.6l-3 129.7-2.9-56c-.3-5.8-2.8-11.3-6.9-15.3-4.3-4.1-9.8-6.3-15.6-5.9l-12 .6-.3-9.8-1.1-43.3c0-2.2.8-4.2 2.1-5.6zm12.1 73c2.1-.1 3.7 1.1 4.4 1.8 1.4 1.3 2.2 3.2 2.3 5.3l4.9 94.7h-1.6c-12.7 0-24.9-2.9-36.1-8.4l-8.5-84.5c-.2-2 .4-4 1.6-5.4.7-.8 1.9-1.8 3.7-1.9l29.3-1.6zM160.7 20.6c.7-.9 1.9-2 3.7-2.2l29.8-3.3c1.9-.2 3.4.6 4.3 1.4 1.7 1.4 2.8 3.5 3 5.8l8.1 83.7.3 10-2.3.1c-5.6.3-10.6 2.8-14.3 7.1-3.9 4.5-5.7 10.6-5.1 16.7l4.1 40.9-9.3-22.3-7.6-109.2c0-.6-.1-1.1-.2-1.6 0-.1 0-.2-.1-.4l-.3-1.5c0-.1 0-.2-.1-.3-.1-.5-.2-.9-.4-1.3 0-.1-.1-.2-.1-.3-.1-.5-.3-.9-.5-1.4 0-.1-.1-.2-.1-.4-.2-.4-.3-.8-.5-1.2 0-.1-.1-.2-.1-.2-.2-.4-.4-.9-.7-1.3-.1-.1-.2-.3-.2-.4-.2-.4-.5-.8-.7-1.2-.1-.1-.1-.2-.2-.3-.2-.3-.4-.6-.7-.9-.1-.1-.2-.2-.3-.4-.3-.4-.6-.7-.9-1l-.3-.3c-.3-.3-.5-.6-.8-.8l-.2-.2c-.3-.3-.7-.6-1-.9l-.3-.3c-.4-.3-.8-.6-1.1-.9-.1 0-.1-.1-.1-.1-.4-.3-.8-.5-1.2-.7-.1-.1-.2-.1-.2-.1-.4-.3-.9-.5-1.3-.7-.1 0-.1-.1-.2-.1-.5-.2-.9-.4-1.4-.6-.5-.2-1-.4-1.5-.5h-.1l-.3-1.8c-.4-2.7.1-5 1.4-6.6zm-40.6 25.7c.7-.8 1.8-1.8 3.6-1.9l29.6-1.7h.1c3.5-.1 6.7 3.2 7 7.4l4.5 65-3.7-8.9c-2.3-5.4-6.4-9.7-11.6-12-.6-.3-1.3-.6-2-.8h-.1c-.6-.2-1.3-.4-1.9-.5h-.2c-.6-.1-1.3-.2-1.9-.3h-.2c-.6-.1-1.3-.1-1.9-.1H139c-.4 0-.8.1-1.3.2-.3 0-.5.1-.8.1-.5.1-.9.2-1.4.3-.2.1-.4.1-.7.2-.7.2-1.3.4-2 .7l-9 3.8-1.4-11.5-4-34.1c-.1-2.4.5-4.4 1.7-5.9zm-8.4 72.7l4.4-1.9 4.5-1.9 18.2-7.6c2-.8 3.8-.2 4.7.2 1.8.8 3.2 2.3 4 4.2l37.3 89.5c-5.6-6.8-10.1-14.4-13.3-22.8-2.6-6.7-8.8-11-15.9-11h-27.3l-19.1-40.1c-.9-1.9-1-3.9-.3-5.6.1-.4.3-.8.6-1.2.4-.7 1.1-1.4 2.2-1.8zM66.4 81.9c-.4-2-.1-4 1-5.5.6-.8 1.6-1.8 3.2-2l28.9-3.8c2.5-.3 5.2 1.3 6.7 4l1.6 13.5 1.8 15.6-3.7 1.5c-5.1 2.1-9.1 6.2-11.1 11.5-2.1 5.5-1.8 11.9.8 17.4l16 33.7H84.1L66.4 81.9zm362.8 103.2l-23.7 137.4h-49.1c-4.1 0-7.5 3.4-7.5 7.5s3.4 7.5 7.5 7.5h46.5l-7.8 45.2h-37.7c-4.1 0-7.5 3.4-7.5 7.5s3.4 7.5 7.5 7.5h35.1l-16.8 97.6c-.2 1-1 1.7-2 1.7h-252c-1 0-1.8-.7-2-1.7l-16.8-97.6H138c4.1 0 7.5-3.4 7.5-7.5s-3.4-7.5-7.5-7.5h-37.7l-7.8-45.2h46.7c4.1 0 7.5-3.4 7.5-7.5s-3.4-7.5-7.5-7.5H89.9L66.3 185.1c-.1-.8.2-1.3.4-1.6.3-.3.8-.7 1.5-.7h87.3c.8 0 1.6.5 1.9 1.4 6.9 18.1 19 33.5 34.9 44.6 16.3 11.4 35.4 17.4 55.4 17.4 1 0 2.1 0 3.1-.1.5 0 1 0 1.5-.1.4 0 .9 0 1.3-.1 4.6-.3 9.1-.9 13.5-1.8 12.9-2.6 25.1-7.8 36-15.5 15.9-11.1 28-26.6 34.9-44.6.3-.8 1.1-1.4 1.9-1.4h87.3c.8 0 1.3.4 1.5.7.3.5.6 1.1.5 1.8z"/></g><g class="st5"><path d="M394.1 290.8h4.7c.1 0 .1.1.2.1.6 0 1.1.1 1.7.1 3.2.2 6.3.7 9.3 1.5 18.5 4.7 33.5 18.7 39.3 37 1.4 4.3 2.2 8.6 2.4 13.1 0 .1.1.3.1.4v6.8c0 .1-.1.2-.1.3 0 .6-.1 1.2-.1 1.8-.3 3.6-1 7.1-2.1 10.5-4 12.9-11.7 23.1-22.9 30.6-4.4 2.9-9.2 5.1-14.3 6.6-.2.1-.3.1-.5.1v-41h12c.6-4.6 1.2-9.2 1.8-13.9h-13.7v-.5-8.6c0-.6 0-1.3.1-1.9.3-2.1 1.3-3.5 3.4-4.2.9-.3 1.9-.4 2.9-.4h7.8v-12.3c-.6-.1-1.3-.1-1.9-.2-3.1-.2-6.2-.4-9.2-.3-1.8 0-3.6.2-5.4.7-4.9 1.4-8.5 4.4-10.4 9.2-1 2.5-1.5 5.2-1.5 7.9V345h-11.8c-.1.5-.1 13.5 0 13.9h11.8v43.2h-3c-.2 0-.3-.1-.5-.1-1-.1-2-.1-3-.2-2.7-.2-5.5-.7-8.1-1.4-11.5-3-21.1-9-28.8-18-7.3-8.6-11.5-18.6-12.8-29.8-.3-2.8-.4-5.7-.3-8.5.2-3.3.6-6.6 1.3-9.8 2.4-10.4 7.4-19.5 15-27 10.1-9.9 22.2-15.3 36.3-16.1 0-.3.1-.4.3-.4z"/><path class="st8" d="M397.4 401.8v-.5-42-.7h-11.8c-.1-.4-.1-13.4 0-13.9h11.8v-.7-10.1c0-2.7.5-5.4 1.5-7.9 2-4.8 5.5-7.8 10.4-9.2 1.8-.5 3.6-.7 5.4-.7 3.1 0 6.2.1 9.2.3.6 0 1.2.1 1.9.2v12.3H418c-1 0-1.9.1-2.9.4-2.1.6-3.1 2.1-3.4 4.2-.1.6-.1 1.3-.1 1.9v9.1h13.7c-.6 4.7-1.2 9.2-1.8 13.9-1 .1-2 0-3 0h-9v41c.2 0 .4-.1.5-.1 5.1-1.5 9.9-3.7 14.3-6.6 11.3-7.5 18.9-17.6 22.9-30.6 1.1-3.4 1.7-6.9 2.1-10.5.1-.6.1-1.2.1-1.8 0-.1.1-.2.1-.3v52.1c-17.8.2-35.9.2-54.1.2z"/><path class="st8" d="M394.1 290.8c-.2 0-.3.1-.5.1-14.1.8-26.2 6.2-36.3 16.1-7.6 7.5-12.6 16.6-15 27-.7 3.2-1.1 6.5-1.3 9.8-.2 2.9 0 5.7.3 8.5 1.2 11.2 5.5 21.2 12.8 29.8 7.7 9.1 17.3 15.1 28.8 18 2.7.7 5.4 1.2 8.1 1.4 1 .1 2 .1 3 .2.2 0 .3.1.5.1h-53.6v-111h53.2zM451.8 342.9c0-.1-.1-.3-.1-.4-.2-4.5-1.1-8.8-2.4-13.1-5.8-18.2-20.8-32.3-39.3-37-3.1-.8-6.2-1.3-9.3-1.5-.6 0-1.1-.1-1.7-.1-.1 0-.1 0-.2-.1h53.1c-.1 17.5-.1 34.8-.1 52.2z"/></g><g><path d="M147.9 350.2h5.6c.1 0 .1.1.2.1.6 0 1.3.1 1.9.1 3.7.3 7.3.9 10.9 1.8 18.6 4.7 34.4 17.6 42.8 34.9 3.8 7.9 6 16.2 6.3 24.9 0 .2.1.4.1.5v5.5c0 .2-.1.4-.1.7 0 .6 0 1.1-.1 1.7-.2 2.9-.6 5.9-1.3 8.7-2.8 12.8-8.9 23.8-18.3 32.9-11.8 11.4-26 17.5-42.3 18.3-.2 0-.4.1-.5.1h-4.9c-.1 0-.2-.1-.3-.1-.8 0-1.5-.1-2.3-.1-3.7-.3-7.3-.9-10.9-1.8-21.6-5.4-39-21.7-46-42.9-1.7-5.2-2.7-10.6-3.1-16.1 0-.5-.1-.9-.2-1.4v-5.5c0-.2.1-.3.1-.5.1-.8.1-1.7.2-2.6.3-3.4.8-6.7 1.7-10 3.1-12.1 9.1-22.5 18.1-31.1 11.7-11.1 25.6-17.1 41.7-18.1.4.1.6.1.7 0zm3.1 93.7v-.1h5.1c6.3-.1 12.7-.2 19-.7 2.2-.2 4.3-.3 6.5-.7 4.4-.8 7.2-3.4 8.3-7.8.5-1.9.7-3.9.9-5.9.4-4.5.6-9 .6-13.5 0-4.1-.2-8.1-.5-12.2-.2-2.2-.4-4.3-1-6.4-1.1-4.5-3.8-7.2-8.3-8.1-2.3-.5-4.5-.7-6.8-.8-3.2-.2-6.3-.4-9.5-.5-6.6-.2-13.2-.3-19.8-.2-6.2.1-12.4.2-18.6.6-2.3.2-4.6.3-6.8.7-4.4.9-7.2 3.5-8.4 7.8a29 29 0 00-.9 5.9c-.4 4.3-.6 8.6-.6 12.8 0 4.2.2 8.4.5 12.5.2 2.3.4 4.5 1 6.8 1 4.3 3.6 7 7.9 8 1.4.3 2.9.5 4.4.6 3.1.3 6.2.5 9.2.6 5.9.3 11.8.4 17.8.6z"/><path class="st8" d="M151 443.9c-5.9-.1-11.9-.3-17.8-.5-3.1-.1-6.2-.4-9.2-.6-1.5-.1-3-.3-4.4-.6-4.3-1-6.9-3.7-7.9-8-.5-2.2-.8-4.5-1-6.8-.4-4.2-.5-8.4-.5-12.5 0-4.3.2-8.6.6-12.8.2-2 .4-4 .9-5.9 1.2-4.3 4-6.9 8.4-7.8 2.3-.4 4.6-.6 6.8-.7 6.2-.4 12.4-.5 18.6-.6 6.6-.1 13.2 0 19.8.2 3.2.1 6.3.3 9.5.5 2.3.1 4.6.3 6.8.8 4.5.9 7.3 3.7 8.3 8.1.5 2.1.8 4.3 1 6.4.4 4.1.5 8.1.5 12.2 0 4.5-.2 9-.6 13.5-.2 2-.4 4-.9 5.9-1.1 4.3-3.9 6.9-8.3 7.8-2.1.4-4.3.6-6.5.7-6.3.5-12.7.6-19 .7H151c0-.1 0-.1 0 0zm-8.3-16.4c1.2-.6 20.7-11.8 21-12.2-1.1-.8-20.6-11.9-21-12v24.2z"/><path d="M142.7 427.5v-24.2c.5.1 19.9 11.2 21 12-.3.3-19.8 11.6-21 12.2z"/></g><g class="st5"><path class="st6" d="M241.7 277.1h6.8c.1 0 .2.1.3.1.8.1 1.6.1 2.5.2 4.6.3 9 1.1 13.5 2.2 26.8 6.7 48.4 27 56.8 53.4 2 6.1 3.2 12.4 3.5 18.9 0 .2.1.4.1.6v9.8c0 .2-.1.5-.1.7 0 .5 0 1.1-.1 1.6-.3 3.6-.9 7.1-1.7 10.6-3.5 15-10.6 28.1-21.6 38.9-14.6 14.5-32.3 22.2-52.9 23.3-.2 0-.5.1-.7.1h-5.9c-.2 0-.4-.1-.7-.1-1.4-.1-2.9-.2-4.3-.3-4-.4-7.9-1-11.7-2-16.6-4.3-30.5-13-41.6-26-10.5-12.4-16.6-26.8-18.4-43-.5-4.1-.6-8.2-.4-12.3.3-4.8.8-9.5 1.9-14.1 3.5-15.1 10.6-28.1 21.6-39 14.5-14.3 32-22 52.4-23.2.2-.3.4-.4.7-.4zm3.3 34.1c-2.7.1-5.5.1-8.2.1-4.2 0-8.4.1-12.5.4-2.7.2-5.4.7-8 1.5-6.8 2.3-11.7 6.6-14.5 13.2-1.7 3.8-2.3 7.8-2.4 11.9-.2 5-.3 9.9-.3 14.9 0 7.6-.1 15.2.3 22.7.1 2.5.4 4.9.9 7.3 1.2 5.4 3.8 10.1 8.1 13.7 3.6 3 7.8 4.7 12.3 5.5 3.1.6 6.3.7 9.4.7 4.1.1 8.1.1 12.2.1 7.2 0 14.4.1 21.5-.3 2.7-.1 5.3-.4 7.9-1.1 9-2.3 14.9-7.9 17.7-16.8.9-3 1.3-6.1 1.4-9.2.1-3.9.3-7.7.3-11.6 0-8.8.1-17.5-.3-26.3-.1-2.5-.4-5-1-7.5-1.3-5.3-3.9-9.8-8.1-13.2-3.8-3.1-8.3-4.7-13.1-5.4-2.8-.4-5.7-.5-8.5-.6H245z"/><path class="st8" d="M241.7 277.1c-.2 0-.5.1-.7.1-20.4 1.2-37.9 8.9-52.4 23.2-11 10.9-18.2 23.9-21.6 39-1.1 4.6-1.6 9.4-1.9 14.1-.2 4.1-.1 8.2.4 12.3 1.8 16.2 7.9 30.6 18.4 43 11.1 13.1 25 21.7 41.6 26 3.9 1 7.8 1.7 11.7 2 1.4.1 2.9.2 4.3.3.2 0 .4.1.7.1h-77.3V276.9c25.5.2 51.1.2 76.8.2zM248 437.3c.2 0 .5-.1.7-.1 20.6-1.1 38.3-8.9 52.9-23.3 11-10.8 18.1-23.9 21.6-38.9.8-3.5 1.3-7 1.7-10.6 0-.5 0-1.1.1-1.6 0-.2.1-.5.1-.7v75.3c-25.8-.1-51.5-.1-77.1-.1zM325 352.3c0-.2-.1-.4-.1-.6-.3-6.5-1.6-12.7-3.5-18.9-8.4-26.3-30-46.6-56.8-53.4-4.4-1.1-8.9-1.9-13.5-2.2-.8-.1-1.6-.1-2.5-.2-.1 0-.2-.1-.3-.1h76.6c.1 25.2.1 50.3.1 75.4z"/><path class="st17" d="M245 311.2c5 .1 10 .1 14.9.2 2.8.1 5.7.1 8.5.6 4.8.7 9.3 2.3 13.1 5.4 4.2 3.5 6.9 8 8.1 13.2.6 2.5.9 5 1 7.5.4 8.8.3 17.5.3 26.3 0 3.9-.1 7.7-.3 11.6-.1 3.1-.5 6.2-1.4 9.2-2.8 8.9-8.7 14.4-17.7 16.8-2.6.7-5.3.9-7.9 1.1-7.2.3-14.4.3-21.5.3-4.1 0-8.1 0-12.2-.1-3.1-.1-6.3-.2-9.4-.7-4.6-.8-8.8-2.5-12.3-5.5-4.3-3.6-6.9-8.3-8.1-13.7-.5-2.4-.8-4.8-.9-7.3-.3-7.6-.3-15.2-.3-22.7 0-5 .1-9.9.3-14.9.1-4.1.8-8.1 2.4-11.9 2.9-6.6 7.8-10.9 14.5-13.2 2.6-.9 5.3-1.3 8-1.5 4.2-.3 8.3-.4 12.5-.4 3-.3 5.7-.3 8.4-.3zm0 83.8c0-.1 0-.1 0 0 2.6-.1 5.2 0 7.8-.1 3.7-.1 7.4-.1 11-.3 2.1-.1 4.1-.3 6.2-.9 5.8-1.6 9.7-5.2 11.4-10.9.7-2.3 1-4.7 1.1-7 .1-4.9.2-9.8.3-14.6 0-4.7 0-9.4-.1-14l-.3-10.3c-.1-2.1-.5-4.2-1.2-6.2-1.7-4.7-4.9-7.9-9.6-9.6-2.6-.9-5.2-1.3-7.9-1.3l-15.3-.3c-4.5 0-8.9 0-13.4.1l-10.3.3c-2.1.1-4.1.5-6 1.2-4.8 1.7-8 4.9-9.7 9.7-.9 2.5-1.2 5.1-1.3 7.7-.1 4.7-.2 9.4-.3 14v13.7c0 3.3.1 6.6.3 9.8.1 1.8.3 3.7.7 5.5.9 3.8 2.7 7 5.8 9.4 2.4 1.8 5.1 2.7 8.1 3.2 2.7.5 5.4.5 8.2.6 4.7.2 9.6.2 14.5.3z"/><path class="st6" d="M245 395c-4.9-.1-9.8-.1-14.6-.2-2.7-.1-5.5-.1-8.2-.6-2.9-.5-5.7-1.4-8.1-3.2-3.1-2.4-5-5.6-5.8-9.4-.4-1.8-.6-3.7-.7-5.5-.1-3.3-.2-6.6-.3-9.8 0-4.6-.1-9.1 0-13.7 0-4.7.1-9.4.3-14 .1-2.6.4-5.2 1.3-7.7 1.7-4.8 4.9-8 9.7-9.7 2-.7 4-1.1 6-1.2 3.4-.2 6.9-.3 10.3-.3 4.5-.1 8.9-.1 13.4-.1 5.1 0 10.2.1 15.3.3 2.7.1 5.3.4 7.9 1.3 4.7 1.7 8 4.9 9.6 9.6.7 2 1.1 4.1 1.2 6.2.2 3.4.3 6.8.3 10.3.1 4.7.1 9.4.1 14 0 4.9-.1 9.8-.3 14.6-.1 2.4-.4 4.7-1.1 7-1.8 5.8-5.6 9.4-11.4 10.9-2 .5-4.1.8-6.2.9-3.7.1-7.4.2-11 .3-2.5-.1-5.1-.1-7.7 0 0-.1 0-.1 0 0zm0-14.2c13 0 23.6-10.6 23.6-23.5 0-13.1-10.5-23.7-23.5-23.7-13.1 0-23.7 10.5-23.7 23.6 0 13 10.6 23.6 23.6 23.6zm30.1-48.1c0-3-2.4-5.5-5.4-5.6-3-.1-5.6 2.5-5.6 5.5s2.4 5.5 5.5 5.5c3 .1 5.4-2.3 5.5-5.4z"/><path class="st17" d="M245 380.8c-13 0-23.6-10.6-23.6-23.7 0-13 10.6-23.6 23.7-23.6 13 0 23.5 10.7 23.5 23.7S258 380.8 245 380.8zm15.4-23.6c0-8.5-6.9-15.3-15.3-15.3-8.5 0-15.3 6.9-15.4 15.3 0 8.5 6.9 15.4 15.4 15.4 8.4-.1 15.3-7 15.3-15.4zM275.1 332.7c-.1 3.1-2.5 5.5-5.6 5.5-3 0-5.5-2.6-5.5-5.5 0-3 2.6-5.5 5.6-5.5 3.1 0 5.5 2.5 5.5 5.5z"/><path class="st6" d="M260.4 357.2c0 8.5-6.9 15.3-15.3 15.4-8.5 0-15.4-6.9-15.4-15.4s6.9-15.3 15.4-15.3c8.4-.1 15.3 6.8 15.3 15.3z"/></g></svg>