<svg xmlns="http://www.w3.org/2000/svg" viewBox="0 0 512 512"><path fill="#d9ccbc" d="M7.604 138.007h496.792v324.436H7.604z"/><path fill="#5d41b8" d="M68.436 462.442h375.129v40.554H68.436z"/><circle cx="442.551" cy="212.018" r="30.416" fill="#f25462"/><path d="M463.527 258.154c17.51-7.994 29.716-25.658 29.716-46.131 0-27.952-22.741-50.693-50.693-50.693s-50.693 22.741-50.693 50.693c0 20.473 12.206 38.136 29.716 46.131-17.51 7.994-29.716 25.658-29.716 46.131 0 27.952 22.741 50.693 50.693 50.693s50.693-22.741 50.693-50.693c.001-20.473-12.205-38.136-29.716-46.131z" fill="#c0ab91"/><g fill="#f25462"><circle cx="442.551" cy="304.28" r="30.416"/><path d="M68.436 168.428c-16.799 0-30.416 13.617-30.416 30.416v202.772c0 16.799 13.617 30.416 30.416 30.416h55.762V168.428H68.436z"/></g><path d="M352.317 168.428h-55.762v263.604h55.762c16.799 0 30.416-13.617 30.416-30.416V198.843c0-16.798-13.617-30.415-30.416-30.415z" fill="#fca500"/><path fill="#fdd844" d="M124.198 168.422h86.178v263.604h-86.178z"/><path fill="#6dcead" d="M210.376 168.422h86.178v263.604h-86.178z"/><path d="M58.297 421.893v-217.98c0-8.399 6.809-15.208 15.208-15.208h50.693v-20.277H68.436c-16.799 0-30.416 13.617-30.416 30.416v202.772c0 13.726 9.094 25.324 21.584 29.109a30.413 30.413 0 01-1.307-8.832z" fill="#ef1e24"/><path fill="#fdbf44" d="M124.198 168.422h86.178v20.277h-86.178z"/><path fill="#5fb2b2" d="M210.376 168.422h86.178v20.277h-86.178z"/><path d="M352.317 168.428h-55.762v20.277h84.44c-4.176-11.813-15.436-20.277-28.678-20.277z" fill="#ba7005"/><path fill="#c0ab91" d="M7.604 442.165h496.792v20.277H7.604z"/><path fill="#45339e" d="M68.436 462.442h375.129v20.277H68.436z"/><path d="M89.22 282.994H74.012v-15.208H89.22v15.208zm0-30.416H74.012v-50.693H89.22v50.693z" fill="#fff"/><circle cx="442.551" cy="212.018" r="30.416" fill="#baf038"/><path d="M0 130.408v339.644h512V130.408H0zm496.792 324.435H15.208V145.616h481.584v309.227z"/><path d="M68.436 439.635h283.881c20.965 0 38.02-17.055 38.02-38.02V198.843c0-20.965-17.055-38.02-38.02-38.02H68.436c-20.965 0-38.02 17.055-38.02 38.02v202.772c0 20.965 17.055 38.02 38.02 38.02zM45.624 198.843c0-12.579 10.233-22.812 22.812-22.812h283.881c12.578 0 22.812 10.233 22.812 22.812v202.772c0 12.579-10.234 22.812-22.812 22.812H68.436c-12.579 0-22.812-10.233-22.812-22.812V198.843zM442.551 250.043c20.965 0 38.02-17.055 38.02-38.02s-17.055-38.02-38.02-38.02-38.02 17.055-38.02 38.02 17.055 38.02 38.02 38.02zm22.811-38.019c0 12.579-10.234 22.812-22.812 22.812s-22.812-10.233-22.812-22.812c0-3.517.802-6.851 2.229-9.829l20.058 20.058 10.754-10.753-20.059-20.059a22.67 22.67 0 019.828-2.229c12.58 0 22.814 10.233 22.814 22.812zM442.551 342.305c20.965 0 38.02-17.055 38.02-38.02s-17.055-38.02-38.02-38.02-38.02 17.055-38.02 38.02 17.055 38.02 38.02 38.02zm22.811-38.02c0 12.579-10.234 22.812-22.812 22.812s-22.812-10.233-22.812-22.812c0-3.517.802-6.851 2.229-9.829l20.058 20.058 10.754-10.753-20.059-20.059a22.67 22.67 0 019.828-2.229c12.58 0 22.814 10.233 22.814 22.812zM466.376 423.916h15.208v15.208h-15.208zM466.376 363.084h15.208v15.208h-15.208zM466.376 393.5h15.208v15.208h-15.208zM435.96 423.916h15.208v15.208H435.96zM435.96 363.084h15.208v15.208H435.96zM435.96 393.5h15.208v15.208H435.96zM405.545 363.084h15.208v15.208h-15.208zM405.545 393.5h15.208v15.208h-15.208zM405.545 423.916h15.208v15.208h-15.208zM234.196 116.464L172.352 9.35l13.17-7.604 61.844 107.114zM278.005 116.118l-13.17-7.604L326.679 1.4l13.17 7.604z"/><path d="M202.772 292.62h15.208v15.208h-15.208zM172.356 292.62h15.208v15.208h-15.208zM233.188 292.62h15.208v15.208h-15.208zM435.96 495.398H76.04v-12.673H60.832v27.881h390.336v-27.881H435.96z"/></svg>