<?xml version="1.0" encoding="utf-8"?>
<!-- Generator: Adobe Illustrator 24.1.0, SVG Export Plug-In . SVG Version: 6.00 Build 0)  -->
<svg version="1.1" id="Calque_1" xmlns="http://www.w3.org/2000/svg" xmlns:xlink="http://www.w3.org/1999/xlink" x="0px" y="0px"
	 viewBox="0 0 512 512" style="enable-background:new 0 0 512 512;" xml:space="preserve">
<style type="text/css">
	.st0{fill:#D9CCBC;}
	.st1{fill:#5D41B8;}
	.st2{fill:#F25462;}
	.st3{fill:#C0AB91;}
	.st4{fill:#FCA500;}
	.st5{fill:#FDD844;}
	.st6{fill:#6DCEAD;}
	.st7{fill:#FDBF44;}
	.st8{fill:#5FB2B2;}
	.st9{fill:#BA7005;}
	.st10{fill:#45339E;}
	.st11{fill:#BAF038;}
	.st12{font-family:'Roboto-Black';}
	.st13{font-size:172px;}
	.st14{font-size:80px;}
</style>
<path class="st0" d="M7.6,138h496.8v324.4H7.6V138z"/>
<path class="st1" d="M68.4,462.4h375.1V503H68.4V462.4z"/>
<circle class="st2" cx="442.6" cy="212" r="30.4"/>
<path class="st3" d="M463.5,258.2c17.5-8,29.7-25.7,29.7-46.1c0-28-22.7-50.7-50.7-50.7s-50.7,22.7-50.7,50.7
	c0,20.5,12.2,38.1,29.7,46.1c-17.5,8-29.7,25.7-29.7,46.1c0,28,22.7,50.7,50.7,50.7s50.7-22.7,50.7-50.7
	C493.2,283.8,481,266.1,463.5,258.2z"/>
<g>
	<circle class="st2" cx="442.6" cy="304.3" r="30.4"/>
	<path class="st2" d="M68.4,168.4C51.6,168.4,38,182,38,198.8v202.8c0,16.8,13.6,30.4,30.4,30.4h55.8V168.4H68.4z"/>
</g>
<path class="st4" d="M352.3,168.4h-55.8V432h55.8c16.8,0,30.4-13.6,30.4-30.4V198.8C382.7,182,369.1,168.4,352.3,168.4L352.3,168.4z
	"/>
<path class="st5" d="M124.2,168.4h86.2V432h-86.2L124.2,168.4z"/>
<path class="st6" d="M210.4,168.4h86.2V432h-86.2V168.4z"/>
<path class="st6" d="M0,0"/>
<path class="st7" d="M124.2,168.4h86.2v20.3h-86.2L124.2,168.4z"/>
<path class="st8" d="M210.4,168.4h86.2v20.3h-86.2V168.4z"/>
<path class="st9" d="M352.3,168.4h-55.8v20.3H381C376.8,176.9,365.6,168.4,352.3,168.4L352.3,168.4z"/>
<path class="st3" d="M7.6,442.2h496.8v20.3H7.6V442.2z"/>
<path class="st10" d="M68.4,462.4h375.1v20.3H68.4V462.4z"/>
<circle class="st11" cx="442.6" cy="212" r="30.4"/>
<path d="M0,130.4v339.6h512V130.4H0z M496.8,454.8H15.2V145.6h481.6L496.8,454.8L496.8,454.8z M0,0"/>
<path d="M202.8,292.6 M218,307.8 M187.6,307.8 M172.4,292.6 M248.4,307.8h-15.2 M436,495.4H76v-12.7H60.8v27.9h390.3v-27.9H436
	V495.4z"/>
<text transform="matrix(1 0 0 1 86 363)"><tspan x="0" y="0" class="st12 st13">K.</tspan><tspan x="162" y="0" class="st12 st14">TV</tspan></text>
</svg>
